<?xml version="1.0" standalone="no"?>
<!DOCTYPE svg PUBLIC "-//W3C//DTD SVG 20010904//EN"
 "http://www.w3.org/TR/2001/REC-SVG-20010904/DTD/svg10.dtd">
<svg version="1.0" xmlns="http://www.w3.org/2000/svg"
 width="300.000000pt" height="292.000000pt" viewBox="0 0 300.000000 292.000000"
 preserveAspectRatio="xMidYMid meet">
<metadata>
Created by potrace 1.10, written by Peter Selinger 2001-2011
</metadata>
<g transform="translate(0.000000,292.000000) scale(0.100000,-0.100000)"
fill="#000000" stroke="none">
<path d="M1282 2771 c-29 -5 -65 -14 -80 -20 -45 -17 -263 -73 -327 -83 -68
-10 -130 -30 -187 -59 -10 -5 -25 -9 -33 -9 -8 0 -15 -4 -15 -10 0 -5 -9 -10
-20 -10 -20 0 -79 -26 -90 -39 -3 -3 -22 -17 -43 -31 -42 -28 -142 -150 -193
-237 -34 -56 -34 -57 -6 -28 15 17 44 55 63 85 37 57 124 151 172 185 58 41
234 107 360 134 123 27 170 28 85 1 -53 -16 -276 -125 -298 -145 -9 -8 -20
-15 -24 -15 -11 0 -137 -100 -188 -150 -41 -40 -72 -75 -141 -160 -56 -67
-129 -208 -174 -335 -14 -38 -27 -72 -29 -74 -10 -11 10 97 23 122 7 15 12 27
9 27 -14 0 36 139 90 247 36 73 7 36 -39 -50 -24 -45 -50 -107 -57 -137 -7
-30 -19 -69 -26 -86 -7 -17 -16 -66 -20 -110 -4 -43 -13 -83 -19 -89 -23 -19
-38 -181 -25 -273 11 -79 64 -252 98 -317 8 -16 21 -50 28 -75 16 -57 56 -162
66 -175 5 -5 19 -27 33 -47 163 -246 315 -410 436 -470 116 -58 128 -61 239
-70 58 -4 112 -8 120 -9 94 -8 569 -15 615 -8 33 5 96 14 140 19 118 15 165
31 208 73 21 20 68 57 105 81 37 24 85 60 107 80 22 20 65 53 95 74 30 20 60
42 65 49 6 6 39 34 75 63 55 43 113 103 223 230 83 96 117 340 86 620 -5 47
-11 132 -14 190 -7 123 -28 207 -63 246 -13 16 -31 45 -39 64 -80 188 -302
422 -493 519 -60 31 -134 75 -202 122 -15 11 -30 19 -33 19 -7 0 -110 46 -139
62 -24 13 -451 20 -524 9z m464 -20 c83 -12 294 -113 294 -141 0 -5 -44 8 -97
27 -240 86 -523 110 -773 67 -74 -13 31 32 115 50 39 8 401 5 461 -3z m-23
-72 c276 -56 515 -180 701 -364 233 -232 346 -500 346 -819 0 -314 -110 -569
-344 -801 -189 -187 -393 -300 -656 -362 -146 -34 -411 -43 -561 -19 -493 81
-894 403 -1042 837 -52 151 -71 364 -47 516 61 376 313 706 680 891 140 70
351 131 510 146 94 9 313 -4 413 -25z m-1629 -1091 c-8 -118 -8 -100 0 -203 4
-61 3 -74 -5 -55 -25 57 -36 202 -21 262 6 24 13 55 17 71 11 56 15 24 9 -75z
m2682 -410 c-8 -70 -34 -168 -53 -198 -29 -45 -176 -210 -182 -204 -3 3 3 12
13 20 11 8 17 14 13 14 -6 0 59 107 73 120 12 11 79 169 101 237 25 81 43 87
35 11z m-2452 -364 c111 -149 288 -293 471 -383 139 -69 237 -101 396 -132 63
-11 116 -23 118 -25 8 -7 -300 5 -393 15 -102 12 -206 56 -291 125 -53 43
-174 174 -214 235 -14 20 -29 41 -33 46 -42 54 -84 116 -109 161 -50 94 -40
86 55 -42z m1705 -449 c-47 -45 -108 -69 -194 -79 -22 -2 -87 -10 -145 -17
-62 -7 -118 -9 -135 -4 -28 8 -26 9 25 16 166 25 312 62 425 108 72 29 75 26
24 -24z"/>
<path d="M2546 2031 c-30 -33 -152 -111 -234 -148 -45 -21 -150 -54 -257 -80
-209 -52 -273 -81 -348 -163 -55 -60 -96 -125 -84 -136 18 -18 105 -16 150 4
54 24 109 97 85 114 -10 8 -10 9 2 5 8 -2 33 5 54 15 27 14 50 18 75 14 20 -3
41 -7 48 -8 18 -2 333 115 333 124 0 11 -28 4 -188 -48 -109 -35 -143 -42
-181 -37 -71 8 -131 -21 -173 -86 -24 -37 -44 -54 -75 -66 -85 -33 -100 -9
-42 64 74 93 140 124 392 185 131 31 217 65 320 124 43 24 81 42 84 39 3 -4
-4 -23 -15 -44 -10 -22 -23 -54 -27 -73 -11 -52 -52 -118 -115 -183 -30 -32
-63 -73 -72 -92 -28 -53 -115 -122 -223 -176 -55 -28 -120 -64 -145 -80 -90
-58 -251 -90 -460 -90 -115 0 -179 6 -266 22 -112 22 -116 22 -172 5 -31 -10
-94 -34 -140 -53 -45 -20 -86 -32 -90 -28 -4 4 16 25 43 48 28 23 63 55 78 71
25 26 26 31 14 50 -8 11 -39 35 -69 53 -66 39 -158 119 -158 139 0 8 -32 48
-70 90 -70 75 -105 130 -113 175 -3 13 -15 45 -28 71 -12 26 -20 51 -16 55 4
4 24 -3 45 -16 114 -69 224 -112 386 -151 208 -50 276 -81 345 -156 28 -31 51
-63 51 -70 0 -8 4 -14 8 -14 5 0 18 -17 29 -38 31 -53 103 -123 154 -149 93
-46 225 -39 327 19 50 28 115 88 207 190 31 34 73 60 167 107 126 62 223 120
215 128 -3 2 -87 -36 -188 -85 l-184 -90 -93 -100 c-74 -81 -106 -107 -160
-134 -60 -30 -75 -33 -152 -33 -125 1 -185 40 -281 183 -114 169 -180 212
-416 266 -219 50 -344 105 -472 207 -29 22 -54 39 -56 37 -7 -8 53 -170 74
-199 13 -18 19 -29 12 -25 -19 12 -12 -14 20 -74 28 -52 99 -133 154 -175 19
-14 19 -15 1 -8 -21 7 -19 1 18 -50 26 -36 125 -111 189 -144 l49 -24 -44 -32
c-57 -41 -169 -140 -164 -145 3 -2 16 4 30 14 15 9 29 14 32 12 3 -3 -89 -67
-203 -142 -114 -75 -205 -136 -201 -136 4 0 78 41 165 91 268 154 466 241 548
243 28 0 91 -7 140 -17 115 -22 356 -24 475 -3 123 22 236 63 273 100 8 8 43
28 79 44 93 42 173 96 229 153 52 54 59 69 32 69 -12 0 -7 7 14 20 48 29 109
95 142 154 35 62 49 102 31 91 -6 -4 0 10 13 31 25 38 74 181 65 190 -3 2 -13
-5 -22 -15z"/>
<path d="M1934 1609 c-3 -6 -2 -15 4 -21 13 -13 32 -2 32 18 0 16 -26 19 -36
3z"/>
<path d="M11 1005 c29 -70 96 -192 128 -233 23 -28 41 -57 41 -63 0 -7 3 -10
6 -7 11 12 -30 125 -61 163 -17 22 -41 56 -53 76 -20 33 -70 86 -61 64z"/>
<path d="M221 715 c0 -22 58 -101 87 -119 10 -6 9 0 -2 20 -20 36 -86 112 -85
99z"/>
<path d="M1340 195 l-85 -12 120 -6 c66 -3 127 -6 135 -7 8 -1 40 5 70 13 47
11 51 14 30 20 -37 10 -173 6 -270 -8z"/>
</g>
</svg>
